<svg id="Capa_1" data-name="Capa 1" xmlns="http://www.w3.org/2000/svg" width="258.5144" height="33.479" viewBox="0 0 258.5144 33.479"><defs><style>.cls-1{fill:#4a4a4a;}</style></defs><path class="cls-1" d="M96.0175,9.8893h4.05L97.1422,23.7047h16.4253l2.9247-13.8154h4.05l-6.7947,31.95h-4.05l3.105-14.5352H96.3775l-3.105,14.5352h-4.05Z" transform="translate(-9.8157 -9.0349)"/><path class="cls-1" d="M133.7275,42.2893a10.75,10.75,0,0,1-4.5674-.9678,11.2979,11.2979,0,0,1-3.6226-2.6322,12.1332,12.1332,0,0,1-2.3847-3.87,12.8412,12.8412,0,0,1,2.43-13.1848,11.3276,11.3276,0,0,1,3.6225-2.6323,10.6463,10.6463,0,0,1,4.5225-.9678,10.4944,10.4944,0,0,1,4.5.9678,11.6684,11.6684,0,0,1,3.6225,2.6323,12.2668,12.2668,0,0,1,2.43,3.87,12.6865,12.6865,0,0,1-2.408,13.1848,11.3,11.3,0,0,1-3.6225,2.6323A10.6441,10.6441,0,0,1,133.7275,42.2893Zm-9.18-12.0151a10.4977,10.4977,0,0,0,.72,3.8925,10.1644,10.1644,0,0,0,1.9575,3.1724,9.2785,9.2785,0,0,0,2.9029,2.1377,8.4215,8.4215,0,0,0,7.11,0,9.2294,9.2294,0,0,0,2.9248-2.1826,10.5141,10.5141,0,0,0,1.98-3.2178,10.6273,10.6273,0,0,0,.72-3.9375,10.5076,10.5076,0,0,0-.72-3.892,10.2419,10.2419,0,0,0-1.98-3.1954A9.8039,9.8039,0,0,0,137.26,20.869a7.8839,7.8839,0,0,0-3.5327-.81,8.0214,8.0214,0,0,0-3.5547.81,9.2715,9.2715,0,0,0-2.9027,2.2051,10.98,10.98,0,0,0-1.98,3.2627A10.57,10.57,0,0,0,124.5475,30.2742Z" transform="translate(-9.8157 -9.0349)"/><path class="cls-1" d="M154.7417,9.8893h10.5752a13.3619,13.3619,0,0,1,5.2427.9453,9.8455,9.8455,0,0,1,3.6674,2.61,11.0663,11.0663,0,0,1,2.16,3.915,15.7261,15.7261,0,0,1,.72,4.815,21.4954,21.4954,0,0,1-1.395,7.83,18.8242,18.8242,0,0,1-3.8926,6.2325,17.947,17.947,0,0,1-5.895,4.1176A18.2871,18.2871,0,0,1,158.522,41.84H147.9468Zm4.5454,28.35a12.5028,12.5028,0,0,0,5.67-1.26,13.2056,13.2056,0,0,0,4.2973-3.3974,15.3135,15.3135,0,0,0,2.7227-4.9278,18.11,18.11,0,0,0,.9448-5.85,12.3577,12.3577,0,0,0-.54-3.7348,8.5515,8.5515,0,0,0-1.5752-2.9473,7.0851,7.0851,0,0,0-2.61-1.935,8.93,8.93,0,0,0-3.645-.6978h-6.525l-5.265,24.75Z" transform="translate(-9.8157 -9.0349)"/><path class="cls-1" d="M187.4561,42.2893a8.0181,8.0181,0,0,1-5.4668-2.0928,6.7633,6.7633,0,0,1-1.6431-2.2949,6.9946,6.9946,0,0,1-.5849-2.8574,5.5211,5.5211,0,0,1,.72-2.79,6.8892,6.8892,0,0,1,2.0018-2.1826,9.9663,9.9663,0,0,1,3.0821-1.44,14.3168,14.3168,0,0,1,3.9609-.5176,21.8883,21.8883,0,0,1,3.8027.3374,18.8347,18.8347,0,0,1,3.4414.9229v-2.295a7.2907,7.2907,0,0,0-1.8886-5.2876,6.8019,6.8019,0,0,0-5.1309-1.9575,10.3057,10.3057,0,0,0-3.623.72,18.5627,18.5627,0,0,0-3.8926,2.07l-.8535-1.53a15.3519,15.3519,0,0,1,8.5488-3.06,8.952,8.952,0,0,1,6.66,2.4527,9.1977,9.1977,0,0,1,2.43,6.7724v11.43q0,1.125.99,1.125v2.025a4.7669,4.7669,0,0,1-.4727.0674c-.164.0145-.3066.0224-.4277.0224a1.8291,1.8291,0,0,1-1.44-.6075,2.5352,2.5352,0,0,1-.6289-1.4624v-1.935a10.5166,10.5166,0,0,1-4.1407,3.24A13.2216,13.2216,0,0,1,187.4561,42.2893Zm.4492-1.8a11.4664,11.4664,0,0,0,4.7931-.99,8.1958,8.1958,0,0,0,3.3535-2.61,3.0212,3.0212,0,0,0,.7187-1.8v-4.14a18.1648,18.1648,0,0,0-3.375-.9449,20.6631,20.6631,0,0,0-3.6445-.3149,12.475,12.475,0,0,0-3.1953.3824,8.4783,8.4783,0,0,0-2.4746,1.0576,4.8908,4.8908,0,0,0-1.5977,1.6426,4.1756,4.1756,0,0,0-.5625,2.1372,5.4835,5.4835,0,0,0,.4492,2.2051,5.1834,5.1834,0,0,0,1.2618,1.7777,5.9968,5.9968,0,0,0,1.9121,1.17A6.4648,6.4648,0,0,0,187.9053,40.4893Z" transform="translate(-9.8157 -9.0349)"/><path class="cls-1" d="M210.0459,9.8893h12.69a6.4106,6.4106,0,0,1,3.06.72,7.39,7.39,0,0,1,2.295,1.89,8.3454,8.3454,0,0,1,1.4394,2.7,10.1717,10.1717,0,0,1,.4951,3.15,10.936,10.936,0,0,1-.9218,4.32,13.7507,13.7507,0,0,1-2.4756,3.87,12.58,12.58,0,0,1-3.6221,2.7671,9.5549,9.5549,0,0,1-4.41,1.0576h-8.8654l-2.43,11.4751h-4.05Zm9.09,16.875a5.3279,5.3279,0,0,0,2.5869-.6748,7.2933,7.2933,0,0,0,2.16-1.8,8.9018,8.9018,0,0,0,1.4628-2.5879,8.56,8.56,0,0,0,.54-2.9922,5.8331,5.8331,0,0,0-1.17-3.7578A3.691,3.691,0,0,0,221.7,13.4892h-8.369L210.495,26.7641Z" transform="translate(-9.8157 -9.0349)"/><path class="cls-1" d="M243.9756,20.4641a9.1922,9.1922,0,0,0-8.82,6.75V41.8393h-2.25v-23.4h2.16v5.76a11.3133,11.3133,0,0,1,3.2177-4.0274,8.2412,8.2412,0,0,1,4.2969-1.7773q.45-.0449.8106-.0454h.585Z" transform="translate(-9.8157 -9.0349)"/><path class="cls-1" d="M256.8917,42.2893a10.7463,10.7463,0,0,1-4.5673-.9678,11.294,11.294,0,0,1-3.6231-2.6323,12.1257,12.1257,0,0,1-2.3847-3.87,12.8386,12.8386,0,0,1,2.43-13.1848,11.324,11.324,0,0,1,3.623-2.6323,10.6418,10.6418,0,0,1,4.5225-.9678,10.4962,10.4962,0,0,1,4.5.9678,11.6854,11.6854,0,0,1,3.6221,2.6323,12.265,12.265,0,0,1,2.43,3.87A12.688,12.688,0,0,1,265.0368,38.69a11.31,11.31,0,0,1-3.6221,2.6323A10.6452,10.6452,0,0,1,256.8917,42.2893Zm-9.1806-12.0151a10.49,10.49,0,0,0,.7207,3.8925,10.1612,10.1612,0,0,0,1.957,3.1724,9.2818,9.2818,0,0,0,2.9024,2.1377,8.4223,8.4223,0,0,0,7.11,0,9.2227,9.2227,0,0,0,2.9248-2.1826,10.8484,10.8484,0,0,0,1.9805-11.0474,10.2532,10.2532,0,0,0-1.9805-3.1953,9.8,9.8,0,0,0-2.9024-2.1826,7.8862,7.8862,0,0,0-3.5323-.81,8.0276,8.0276,0,0,0-3.5556.81,9.2714,9.2714,0,0,0-2.9023,2.2051,10.9833,10.9833,0,0,0-1.98,3.2627,10.5618,10.5618,0,0,0-.7424,3.9375Z" transform="translate(-9.8157 -9.0349)"/><path class="cls-1" d="M45.5225,41.385a1.2275,1.2275,0,0,1-.8994.91,4.5425,4.5425,0,0,1-.9131.167q-.5419.0513-1.3359.0518-.82,0-1.3892-.0518a4.5946,4.5946,0,0,1-.9394-.167,1.1526,1.1526,0,0,1-.5557-.333,1.5464,1.5464,0,0,1-.291-.5771L32.0284,16.34h-.0528L25.3609,41.385a1.3071,1.3071,0,0,1-.2647.5771,1.151,1.151,0,0,1-.5293.333,4.0305,4.0305,0,0,1-.8862.167q-.5427.0513-1.3891.0518-.8731,0-1.4551-.0518a4.6315,4.6315,0,0,1-.9527-.167,1.2447,1.2447,0,0,1-.5688-.333,1.2246,1.2246,0,0,1-.2778-.5771L9.9883,10.7522a4.443,4.443,0,0,1-.1718-.9229.5853.5853,0,0,1,.2114-.5127,1.4184,1.4184,0,0,1,.7275-.23q.5025-.0513,1.35-.0513.82,0,1.2964.0386a2.571,2.571,0,0,1,.7276.1406.64.64,0,0,1,.3442.2822,1.7183,1.7183,0,0,1,.1455.4614l7.6992,27.7876h.0269L29.647,10.009a1.8522,1.8522,0,0,1,.1988-.4741A.746.746,0,0,1,30.23,9.24a3.0965,3.0965,0,0,1,.754-.1538,12.8273,12.8273,0,0,1,1.2832-.0513,10.5983,10.5983,0,0,1,1.1772.0513,2.9773,2.9773,0,0,1,.7012.1538.7484.7484,0,0,1,.3838.2949,1.8523,1.8523,0,0,1,.1987.4741l7.8579,27.7363h.0532L50.1793,9.9831c.0532-.17.1059-.32.1591-.4482A.5581.5581,0,0,1,50.669,9.24a2.82,2.82,0,0,1,.7144-.1538,11.686,11.686,0,0,1,1.23-.0513,9.7133,9.7133,0,0,1,1.2569.0639,1.3351,1.3351,0,0,1,.6743.2437.602.602,0,0,1,.1987.5127,5.5894,5.5894,0,0,1-.1455.9228Z" transform="translate(-9.8157 -9.0349)"/><path class="cls-1" d="M79.4542,32.8488a9.6925,9.6925,0,0,1-.41,2.8838,8.24,8.24,0,0,1-2.937,4.2168,10.3752,10.3752,0,0,1-2.355,1.333,13.7028,13.7028,0,0,1-2.8047.8077,19.472,19.472,0,0,1-3.4262.27H58.5777a1.9087,1.9087,0,0,1-1.1509-.3975,1.621,1.621,0,0,1-.5425-1.3974V10.9831a1.6212,1.6212,0,0,1,.5425-1.3969,1.9151,1.9151,0,0,1,1.1509-.3975H66.357a18.6027,18.6027,0,0,1,5.0268.564,9.002,9.002,0,0,1,3.2681,1.6406,6.8038,6.8038,0,0,1,1.9712,2.64,9.0166,9.0166,0,0,1,.6611,3.5376,8.6114,8.6114,0,0,1-.291,2.2559,7.34,7.34,0,0,1-.86,1.9868,6.82,6.82,0,0,1-1.4288,1.6279,7.6,7.6,0,0,1-1.9711,1.1792,8.4654,8.4654,0,0,1,2.62.9356,7.9236,7.9236,0,0,1,2.13,1.73,8.0194,8.0194,0,0,1,1.4419,2.461A8.77,8.77,0,0,1,79.4542,32.8488ZM72.6011,18.0071a6.5239,6.5239,0,0,0-.3432-2.1792,4.031,4.031,0,0,0-1.0821-1.6534,4.9005,4.9005,0,0,0-1.9272-1.0381,11.1836,11.1836,0,0,0-3.1411-.3588H61.4087V23.5183h5.1739a7.5563,7.5563,0,0,0,2.851-.4483,5.1181,5.1181,0,0,0,1.795-1.205,4.6341,4.6341,0,0,0,1.0425-1.7686A6.694,6.694,0,0,0,72.6011,18.0071Zm2.064,15.0986a6.5359,6.5359,0,0,0-.4888-2.6152,4.9709,4.9709,0,0,0-1.4258-1.8965,6.3579,6.3579,0,0,0-2.35-1.166,13.37,13.37,0,0,0-3.5513-.3975h-5.44V38.719H68.01a9.2539,9.2539,0,0,0,2.72-.3584,6.1749,6.1749,0,0,0,2.0464-1.0635A4.9234,4.9234,0,0,0,74.1631,35.54,5.5874,5.5874,0,0,0,74.6651,33.1057Z" transform="translate(-9.8157 -9.0349)"/></svg>